<svg xmlns="http://www.w3.org/2000/svg" viewBox="0 0 154 54"><defs><style>.cls-1{fill:#25333a;}.cls-2{fill:#23d8a0;fill-rule:evenodd;}</style></defs><title>Clearleft</title><path class="cls-1" d="M152.5 27.54v5.36h-2.36c-5.52 0-8.55-3.31-8.55-9.31v-6.78h-7.36V32.9h-5.61V16.81h-3.09l-.06-4.65h3.15v-.57c0-6 3-9.31 8.55-9.31h2.36v5.36h-2.36c-2 0-2.95 1.29-2.95 4v.57h7.36v-3.9l5.61-3.55v7.4h4v4.65h-4v6.78c0 2.66 1 4 2.95 4zM77 11.85h5.61v21H77v-2a8.51 8.51 0 0 1-6.43 2.6c-5.66 0-10.09-4.84-10.09-11s4.43-11 10.09-11A8.51 8.51 0 0 1 77 13.92zm0 10.5c0-3.54-2.36-6.11-5.61-6.11s-5.56 2.57-5.56 6.11 2.34 6.11 5.56 6.11S77 25.95 77 22.35zm12.88-8.67v-1.83h-5.37v21h5.6v-9.46c0-4.5.77-6.78 5-6.78h1.5v-5.4h-.23c-2.95 0-5.22.87-6.54 2.47zM98 32.83h5.59V2.44H98zM17 8.1a8.8 8.8 0 0 1 7.64 4.53l.12.21.2-.13 4.83-3.07.2-.13-.13-.2a15.28 15.28 0 0 0-12.79-6.87A15.34 15.34 0 0 0 1.5 17.86a15.39 15.39 0 0 0 15.61 15.49 15.2 15.2 0 0 0 12.77-6.69l.13-.19-5.2-3.47-.13.2a8.82 8.82 0 0 1-7.61 4.45c-5.16 0-9.2-4.32-9.2-9.84 0-4.75 3.43-9.71 9.13-9.71zm14.57 24.73h5.59V2.44h-5.59zm94-10.51c0 .58 0 1.15-.09 1.69v.47h-14.8a5.15 5.15 0 0 0 5.37 4.11 9.18 9.18 0 0 0 5.51-2l.43-.34 2.77 4-.35.3a12.53 12.53 0 0 1-8.62 3c-6.37 0-10.82-4.57-10.82-11.12s4.34-11.12 10.55-11.12c5.88-.09 10.01 4.48 10.03 11.01zm-5.63-2.22c-.57-2.54-2.16-3.94-4.5-3.94a4.59 4.59 0 0 0-4.72 3.94zm-60.73 2.22c0 .58 0 1.15-.09 1.69v.47H44.34a5.15 5.15 0 0 0 5.37 4.11 9.18 9.18 0 0 0 5.51-2l.43-.34 2.77 4-.35.3a12.53 12.53 0 0 1-8.62 3c-6.37 0-10.82-4.57-10.82-11.12S43 11.22 49.17 11.22c5.89 0 10.02 4.57 10.04 11.1zm-5.63-2.22c-.57-2.54-2.16-3.94-4.5-3.94a4.59 4.59 0 0 0-4.72 3.94z"/><path class="cls-2" d="M151.8 44a1.77 1.77 0 0 0-2.18-1.42 6.83 6.83 0 0 1-3.31.24c-1.39-.18-2.86-.31-4.29-.46-2.39-.26-4.79-.47-7.2-.66-2.63-.2-5.27-.34-7.9-.52-2.48-.17-4.95-.39-7.43-.51q-7.86-.38-15.73-.59c-4.37-.15-19.57-.32-23.95-.26-3.07 0-6.13.14-9.19.18-4.06 0-18.94.34-23 .58-4.33.23-8.68.38-13 .68-4 .27-8 .45-11.94.74a17.06 17.06 0 0 0-2.7.28c-2.35 0-4.43.22-6.52.33-1.66.09-3.36.13-5 .38v0c-.69 0-1-.4-2.07-.26s-2.07.46-2.12 1.06c-.55.12 0 .41-.62.52v.47c.43.2.56.41 0 .66v.19c.34-.14.39 0 .56.07v.39c-.4.19-.16.37-.09.54s.5.44.42.71a1.31 1.31 0 0 0 .51 1.28v.23c.11.7 1.05 1.28 1.18 2 .1.55 1 1 2.31.89 1.12-.06 1.51-.53 2.53-.68.19 0 .81-.09 1-.1 4.23-.28 8.46-.59 12.66-1 1.24-.11 2.58-.08 3.72-.3 1.5-.29 3.07-.29 4.59-.5a68.62 68.62 0 0 1 8.64-.5c2.41 0 4.77-.26 7.16-.36 1.33-.06 2.66.06 4-.08a8.12 8.12 0 0 1 1.57-.14c1.43.09 13.66-.12 15.1-.11 2.79 0 5.58-.14 8.36-.17 3.3-.06 17.36-.17 20.68 0 1.13 0 2.31.21 3.37.15 3.11-.17 6.19.1 9.28.17 2.71.06 5.39.31 8.11.39s5.22.23 7.8.51c1 .11 2.08.25 3.15.35.84.08 1.41-.21 2.21-.11 2 .27 4.11.46 6.21.61a27.25 27.25 0 0 1 3.25.28 35.42 35.42 0 0 0 4.73.66l1 .36a4 4 0 0 0 2.76.29 1.46 1.46 0 0 0 .61-1.59v-.18c.1-.15.19-.31.09-.48.26-.1.28-.22.21-.37.25-.57.71-1.11.44-1.74-.11-.25-.39-.62.42-.79v-.47c-.39-.05-.43-.19-.51-.32.04-.52.1-1.02.12-1.52zM78.32 45.26a.72.72 0 0 0-.19 0 .72.72 0 0 1 .19 0"/></svg>
