{% set calcHeight = 150/130 * svgWidth | default('130') %}
<svg width="{{ svgWidth | default('130') }}" height="{{ calcHeight | default('150') }}" viewBox="494 175 130 151" version="1.1" xmlns="http://www.w3.org/2000/svg" xmlns:xlink="http://www.w3.org/1999/xlink">
    <g id="koch-3" stroke="none" stroke-width="1" fill="none" fill-rule="evenodd" transform="translate(509.000000, 193.000000)">
        <polygon id="Shape" stroke="{{ svgFill | default('#C23582') }}" stroke-width="14" fill="#FFFFFF" points="1.22858933e-15 28.9071954 3.69736344 28.9071954 5.54604516 25.6952848 7.39472688 28.9071954 11.0920903 28.9071954 12.940772 25.6952848 11.0920903 22.4833742 14.7894538 22.4833742 16.6381355 19.2714636 18.4868172 22.4833742 22.1841806 22.4833742 20.3354989 25.6952848 22.1841806 28.9071954 25.8815441 28.9071954 27.7302258 25.6952848 29.5789075 28.9071954 33.276271 28.9071954 35.1249527 25.6952848 33.276271 22.4833742 36.9736344 22.4833742 38.8223161 19.2714636 36.9736344 16.059553 33.276271 16.059553 35.1249527 12.8476424 33.276271 9.63573181 36.9736344 9.63573181 38.8223161 6.4238212 40.6709978 9.63573181 44.3683613 9.63573181 46.217043 6.4238212 44.3683613 3.2119106 48.0657247 3.2119106 49.9144064 0 51.7630882 3.2119106 55.4604516 3.2119106 53.6117699 6.4238212 55.4604516 9.63573181 59.157815 9.63573181 61.0064968 6.4238212 62.8551785 9.63573181 66.5525419 9.63573181 64.7038602 12.8476424 66.5525419 16.059553 62.8551785 16.059553 61.0064968 19.2714636 62.8551785 22.4833742 66.5525419 22.4833742 64.7038602 25.6952848 66.5525419 28.9071954 70.2499054 28.9071954 72.0985871 25.6952848 73.9472688 28.9071954 77.6446322 28.9071954 79.493314 25.6952848 77.6446322 22.4833742 81.3419957 22.4833742 83.1906774 19.2714636 85.0393591 22.4833742 88.7367225 22.4833742 86.8880408 25.6952848 88.7367225 28.9071954 92.434086 28.9071954 94.2827677 25.6952848 96.1314494 28.9071954 99.8288129 28.9071954 97.9801311 32.119106 99.8288129 35.3310166 96.1314494 35.3310166 94.2827677 38.5429272 96.1314494 41.7548378 99.8288129 41.7548378 97.9801311 44.9667484 99.8288129 48.178659 96.1314494 48.178659 94.2827677 51.3905696 92.434086 48.178659 88.7367225 48.178659 86.8880408 51.3905696 88.7367225 54.6024802 85.0393591 54.6024802 83.1906774 57.8143908 85.0393591 61.0263014 88.7367225 61.0263014 86.8880408 64.238212 88.7367225 67.4501226 92.434086 67.4501226 94.2827677 64.238212 96.1314494 67.4501226 99.8288129 67.4501226 97.9801311 70.6620332 99.8288129 73.8739438 96.1314494 73.8739438 94.2827677 77.0858544 96.1314494 80.2977651 99.8288129 80.2977651 97.9801311 83.5096757 99.8288129 86.7215863 96.1314494 86.7215863 94.2827677 89.9334969 92.434086 86.7215863 88.7367225 86.7215863 86.8880408 89.9334969 88.7367225 93.1454075 85.0393591 93.1454075 83.1906774 96.3573181 81.3419957 93.1454075 77.6446322 93.1454075 79.493314 89.9334969 77.6446322 86.7215863 73.9472688 86.7215863 72.0985871 89.9334969 70.2499054 86.7215863 66.5525419 86.7215863 64.7038602 89.9334969 66.5525419 93.1454075 62.8551785 93.1454075 61.0064968 96.3573181 62.8551785 99.5692287 66.5525419 99.5692287 64.7038602 102.781139 66.5525419 105.99305 62.8551785 105.99305 61.0064968 109.20496 59.157815 105.99305 55.4604516 105.99305 53.6117699 109.20496 55.4604516 112.416871 51.7630882 112.416871 49.9144064 115.628782 48.0657247 112.416871 44.3683613 112.416871 46.217043 109.20496 44.3683613 105.99305 40.6709978 105.99305 38.8223161 109.20496 36.9736344 105.99305 33.276271 105.99305 35.1249527 102.781139 33.276271 99.5692287 36.9736344 99.5692287 38.8223161 96.3573181 36.9736344 93.1454075 33.276271 93.1454075 35.1249527 89.9334969 33.276271 86.7215863 29.5789075 86.7215863 27.7302258 89.9334969 25.8815441 86.7215863 22.1841806 86.7215863 20.3354989 89.9334969 22.1841806 93.1454075 18.4868172 93.1454075 16.6381355 96.3573181 14.7894538 93.1454075 11.0920903 93.1454075 12.940772 89.9334969 11.0920903 86.7215863 7.39472688 86.7215863 5.54604516 89.9334969 3.69736344 86.7215863 1.10573039e-14 86.7215863 1.84868172 83.5096757 1.10573039e-14 80.2977651 3.69736344 80.2977651 5.54604516 77.0858544 3.69736344 73.8739438 6.14294663e-15 73.8739438 1.84868172 70.6620332 1.10573039e-14 67.4501226 3.69736344 67.4501226 5.54604516 64.238212 7.39472688 67.4501226 11.0920903 67.4501226 12.940772 64.238212 11.0920903 61.0263014 14.7894538 61.0263014 16.6381355 57.8143908 14.7894538 54.6024802 11.0920903 54.6024802 12.940772 51.3905696 11.0920903 48.178659 7.39472688 48.178659 5.54604516 51.3905696 3.69736344 48.178659 3.68576798e-15 48.178659 1.84868172 44.9667484 0 41.7548378 3.69736344 41.7548378 5.54604516 38.5429272 3.69736344 35.3310166 1.84288399e-15 35.3310166 1.84868172 32.119106"></polygon>
    </g>
</svg>
