<?xml version="1.0" encoding="UTF-8" standalone="no"?>
<svg width="532px" height="614px" viewBox="0 0 532 614" version="1.1" xmlns="http://www.w3.org/2000/svg" xmlns:xlink="http://www.w3.org/1999/xlink">
    <!-- Generator: Sketch Beta 39 (31667) - http://www.bohemiancoding.com/sketch -->
    <title>koch-2</title>
    <desc>Created with Sketch Beta.</desc>
    <defs></defs>
    <g id="Page-1" stroke="none" stroke-width="1" fill="none" fill-rule="evenodd">
        <g id="koch-2" transform="translate(16.000000, 18.000000)" stroke-width="18" stroke="#C23582" fill="#FFFFFF">
            <polygon id="Shape" points="0 145 55.5555556 145 83.3333333 96.8874776 111.111111 145 166.666667 145 194.444444 96.8874776 166.666667 48.7749551 222.222222 48.7749551 250 0.662432703 277.777778 48.7749551 333.333333 48.7749551 305.555556 96.8874776 333.333333 145 388.888889 145 416.666667 96.8874776 444.444444 145 500 145 472.222222 193.112522 500 241.225045 444.444444 241.225045 416.666667 289.337567 444.444444 337.45009 500 337.45009 472.222222 385.562612 500 433.675135 444.444444 433.675135 416.666667 481.787657 388.888889 433.675135 333.333333 433.675135 305.555556 481.787657 333.333333 529.900179 277.777778 529.900179 250 578.012702 222.222222 529.900179 166.666667 529.900179 194.444444 481.787657 166.666667 433.675135 111.111111 433.675135 83.3333333 481.787657 55.5555556 433.675135 4.92278448e-14 433.675135 27.7777778 385.562612 4.92278448e-14 337.45009 55.5555556 337.45009 83.3333333 289.337567 55.5555556 241.225045 1.23069612e-14 241.225045 27.7777778 193.112522"></polygon>
        </g>
    </g>
</svg>