<svg width="276px" height="317px" viewBox="0 0 276 317" version="1.1" xmlns="http://www.w3.org/2000/svg" xmlns:xlink="http://www.w3.org/1999/xlink">
    <g id="Page-1" stroke="none" stroke-width="1" fill="none" fill-rule="evenodd">
        <g id="koch-3" transform="translate(15.000000, 17.000000)" stroke-width="4" stroke="#fff" fill="#FFFFFF" fill-opacity="0" stroke-opacity="0.7">
            <polygon id="Shape" points="3.02232974e-15 70.7727888 9.09551406 70.7727888 13.6432711 62.9091456 18.1910281 70.7727888 27.2865422 70.7727888 31.8342992 62.9091456 27.2865422 55.0455024 36.3820562 55.0455024 40.9298133 47.1818592 45.4775703 55.0455024 54.5730844 55.0455024 50.0253273 62.9091456 54.5730844 70.7727888 63.6685984 70.7727888 68.2163555 62.9091456 72.7641125 70.7727888 81.8596266 70.7727888 86.4073836 62.9091456 81.8596266 55.0455024 90.9551406 55.0455024 95.5028976 47.1818592 90.9551406 39.318216 81.8596266 39.318216 86.4073836 31.4545728 81.8596266 23.5909296 90.9551406 23.5909296 95.5028976 15.7272864 100.050655 23.5909296 109.146169 23.5909296 113.693926 15.7272864 109.146169 7.8636432 118.241683 7.8636432 122.78944 0 127.337197 7.8636432 136.432711 7.8636432 131.884954 15.7272864 136.432711 23.5909296 145.528225 23.5909296 150.075982 15.7272864 154.623739 23.5909296 163.719253 23.5909296 159.171496 31.4545728 163.719253 39.318216 154.623739 39.318216 150.075982 47.1818592 154.623739 55.0455024 163.719253 55.0455024 159.171496 62.9091456 163.719253 70.7727888 172.814767 70.7727888 177.362524 62.9091456 181.910281 70.7727888 191.005795 70.7727888 195.553552 62.9091456 191.005795 55.0455024 200.101309 55.0455024 204.649066 47.1818592 209.196823 55.0455024 218.292337 55.0455024 213.74458 62.9091456 218.292337 70.7727888 227.387852 70.7727888 231.935609 62.9091456 236.483366 70.7727888 245.57888 70.7727888 241.031123 78.636432 245.57888 86.5000752 236.483366 86.5000752 231.935609 94.3637184 236.483366 102.227362 245.57888 102.227362 241.031123 110.091005 245.57888 117.954648 236.483366 117.954648 231.935609 125.818291 227.387852 117.954648 218.292337 117.954648 213.74458 125.818291 218.292337 133.681934 209.196823 133.681934 204.649066 141.545578 209.196823 149.409221 218.292337 149.409221 213.74458 157.272864 218.292337 165.136507 227.387852 165.136507 231.935609 157.272864 236.483366 165.136507 245.57888 165.136507 241.031123 173.00015 245.57888 180.863794 236.483366 180.863794 231.935609 188.727437 236.483366 196.59108 245.57888 196.59108 241.031123 204.454723 245.57888 212.318366 236.483366 212.318366 231.935609 220.18201 227.387852 212.318366 218.292337 212.318366 213.74458 220.18201 218.292337 228.045653 209.196823 228.045653 204.649066 235.909296 200.101309 228.045653 191.005795 228.045653 195.553552 220.18201 191.005795 212.318366 181.910281 212.318366 177.362524 220.18201 172.814767 212.318366 163.719253 212.318366 159.171496 220.18201 163.719253 228.045653 154.623739 228.045653 150.075982 235.909296 154.623739 243.772939 163.719253 243.772939 159.171496 251.636582 163.719253 259.500226 154.623739 259.500226 150.075982 267.363869 145.528225 259.500226 136.432711 259.500226 131.884954 267.363869 136.432711 275.227512 127.337197 275.227512 122.78944 283.091155 118.241683 275.227512 109.146169 275.227512 113.693926 267.363869 109.146169 259.500226 100.050655 259.500226 95.5028976 267.363869 90.9551406 259.500226 81.8596266 259.500226 86.4073836 251.636582 81.8596266 243.772939 90.9551406 243.772939 95.5028976 235.909296 90.9551406 228.045653 81.8596266 228.045653 86.4073836 220.18201 81.8596266 212.318366 72.7641125 212.318366 68.2163555 220.18201 63.6685984 212.318366 54.5730844 212.318366 50.0253273 220.18201 54.5730844 228.045653 45.4775703 228.045653 40.9298133 235.909296 36.3820562 228.045653 27.2865422 228.045653 31.8342992 220.18201 27.2865422 212.318366 18.1910281 212.318366 13.6432711 220.18201 9.09551406 212.318366 2.72009677e-14 212.318366 4.54775703 204.454723 2.72009677e-14 196.59108 9.09551406 196.59108 13.6432711 188.727437 9.09551406 180.863794 1.51116487e-14 180.863794 4.54775703 173.00015 2.72009677e-14 165.136507 9.09551406 165.136507 13.6432711 157.272864 18.1910281 165.136507 27.2865422 165.136507 31.8342992 157.272864 27.2865422 149.409221 36.3820562 149.409221 40.9298133 141.545578 36.3820562 133.681934 27.2865422 133.681934 31.8342992 125.818291 27.2865422 117.954648 18.1910281 117.954648 13.6432711 125.818291 9.09551406 117.954648 9.06698923e-15 117.954648 4.54775703 110.091005 0 102.227362 9.09551406 102.227362 13.6432711 94.3637184 9.09551406 86.5000752 4.53349461e-15 86.5000752 4.54775703 78.636432"></polygon>
        </g>
    </g>
</svg>
