<?xml version="1.0" encoding="UTF-8" standalone="no"?>
<svg width="665" height="189" viewBox="0 0 665 189" xmlns="http://www.w3.org/2000/svg"><title>fractal</title><g fill="none" fill-rule="evenodd"><path fill="none" d="M16 56.104h44L82 18l22 38.104h44l-22 38.104 22 38.104h-44l-22 38.104-22-38.104H16l22-38.104z" stroke-width="18" stroke="#C23582" fill-opacity="0"/><path d="M202.883 80.492V70.156l11.812-5.765v-5.765c0-8.953 2.203-15.492 6.61-19.617 4.406-4.125 11.46-6.188 21.164-6.188 7.405 0 13.99 1.102 19.757 3.305l-5.485 15.75c-4.312-1.36-8.297-2.04-11.953-2.04-3.048 0-5.25.903-6.61 2.708-1.36 1.805-2.04 4.113-2.04 6.926v4.92h18.563v16.102H236.14V143h-21.445V80.492h-11.812zM267.008 143V64.39h16.242l3.164 13.22h1.055c2.436-4.407 5.73-7.958 9.878-10.653 4.148-2.695 8.66-4.043 13.535-4.043 2.906 0 5.32.21 7.242.633l-1.617 20.11c-1.735-.47-3.844-.704-6.328-.704-6.844 0-12.176 1.758-15.996 5.274-3.82 3.515-5.73 8.437-5.73 14.765V143h-21.446zm60.187-23.484c0-8.344 2.918-14.496 8.754-18.457 5.835-3.962 14.636-6.154 26.402-6.576l13.64-.42v-3.447c0-7.97-4.078-11.953-12.234-11.953-6.28 0-13.664 1.898-22.15 5.695l-7.1-14.485c9.047-4.734 19.078-7.102 30.094-7.102 10.546 0 18.632 2.297 24.257 6.89 5.624 4.595 8.437 11.58 8.437 20.954V143H382.32l-4.148-10.688h-.563c-3.61 4.547-7.325 7.7-11.145 9.458-3.82 1.757-8.8 2.636-14.942 2.636-7.546 0-13.488-2.156-17.824-6.47-4.337-4.31-6.505-10.452-6.505-18.42zm22.008.14c0 6.047 3.47 9.07 10.406 9.07 4.968 0 8.94-1.43 11.917-4.288 2.977-2.86 4.465-6.657 4.465-11.39v-6.47l-8.297.28c-6.234.19-10.875 1.314-13.922 3.376-3.046 2.063-4.57 5.203-4.57 9.422zm65.39-15.54c0-13.358 3.33-23.565 9.985-30.62 6.656-7.055 16.195-10.582 28.617-10.582 9.094 0 17.25 1.78 24.47 5.344l-6.33 16.594c-3.374-1.36-6.515-2.473-9.42-3.34-2.907-.867-5.813-1.3-8.72-1.3-11.156 0-16.734 7.92-16.734 23.765 0 15.375 5.58 23.062 16.735 23.062 4.125 0 7.946-.552 11.46-1.653 3.517-1.102 7.032-2.824 10.548-5.168v18.35c-3.47 2.203-6.973 3.727-10.512 4.57-3.538.844-8.002 1.266-13.393 1.266-24.47 0-36.703-13.43-36.703-40.29zm70.876-23.624v-9.07l11.81-7.172 6.19-16.594h13.71V64.39h22.007v16.102H517.18v37.9c0 3.046.855 5.295 2.566 6.75 1.71 1.452 3.973 2.178 6.785 2.178 3.75 0 8.25-.82 13.5-2.46v15.96c-5.343 2.39-11.905 3.586-19.686 3.586-8.578 0-14.824-2.168-18.74-6.504-3.913-4.336-5.87-10.84-5.87-19.51v-37.9H485.47zm65.25 39.024c0-8.344 2.917-14.496 8.753-18.457 5.836-3.962 14.636-6.154 26.402-6.576l13.64-.42v-3.447c0-7.97-4.077-11.953-12.234-11.953-6.28 0-13.663 1.898-22.147 5.695l-7.102-14.485c9.048-4.734 19.08-7.102 30.095-7.102 10.547 0 18.633 2.297 24.258 6.89 5.625 4.595 8.437 11.58 8.437 20.954V143h-14.976l-4.15-10.688h-.56c-3.61 4.547-7.325 7.7-11.146 9.458-3.82 1.757-8.8 2.636-14.94 2.636-7.548 0-13.49-2.156-17.825-6.47-4.336-4.31-6.504-10.452-6.504-18.42zm22.007.14c0 6.047 3.468 9.07 10.406 9.07 4.97 0 8.94-1.43 11.918-4.288 2.977-2.86 4.466-6.657 4.466-11.39v-6.47l-8.297.28c-6.236.19-10.876 1.314-13.923 3.376-3.047 2.063-4.57 5.203-4.57 9.422zM642.897 143V33.594h21.447V143h-21.446z" fill="#000"/></g></svg>
